<?xml version="1.0" encoding="UTF-8" standalone="no"?>
<!DOCTYPE svg PUBLIC "-//W3C//DTD SVG 1.1//EN" "http://www.w3.org/Graphics/SVG/1.1/DTD/svg11.dtd">
<svg width="100%" height="100%" viewBox="0 0 691 438" version="1.1" xmlns="http://www.w3.org/2000/svg" xmlns:xlink="http://www.w3.org/1999/xlink" xml:space="preserve" xmlns:serif="http://www.serif.com/" style="fill-rule:evenodd;clip-rule:evenodd;stroke-linejoin:round;stroke-miterlimit:2;">
    <g transform="matrix(1,0,0,1,-249,-77.5)">
        <g>
            <g transform="matrix(1,0,0,1,221,-221.5)">
                <rect x="28" y="299" width="691" height="438" style="fill:white;"/>
            </g>
            <g transform="matrix(0.279169,0,0,0.279169,245.405,131.711)">
                <path d="M515.283,361.773C539.337,353.755 564.994,349.479 591.614,349.479C708.143,349.479 805.428,432.224 827.664,542.232L992.836,508.556C954.991,321.683 789.713,180.993 591.614,180.993C546.179,180.993 502.668,188.37 461.829,202.054L515.283,361.773Z" style="fill:rgb(255,203,5);fill-rule:nonzero;"/>
                <path d="M320.391,896.948L432.109,770.691C382.291,726.539 350.86,662.074 350.86,590.233C350.86,518.498 382.291,454.033 432.109,409.988L320.391,283.624C235.721,358.672 182.268,468.252 182.268,590.233C182.268,712.32 235.721,821.9 320.391,896.948" style="fill:rgb(0,164,224);fill-rule:nonzero;"/>
                <path d="M827.664,638.555C805.321,748.455 708.143,831.094 591.721,831.094C564.994,831.094 539.23,826.818 515.283,818.693L461.829,978.625C502.668,992.202 546.286,999.579 591.721,999.579C789.606,999.579 954.777,859.103 992.836,672.444L827.664,638.555Z" style="fill:rgb(239,65,35);fill-rule:nonzero;"/>
                <path d="M1137.27,775.93C1131.81,767.164 1124.55,753.159 1120.06,742.789C1093.86,682.066 1092.69,619.204 1114.71,558.909C1138.98,492.734 1185.38,442.167 1245.35,416.295C1320.72,383.903 1404,390.21 1476.27,433.08C1522.13,459.379 1554.63,500.003 1579.33,557.519C1582.43,564.896 1585.21,572.7 1587.99,579.435L1137.27,775.93ZM1287.79,513.901C1234.23,536.886 1206.65,587.132 1212.42,645.931L1439.07,548.325C1400.04,502.569 1349.37,487.388 1287.79,513.901ZM1467.29,726.218C1467.18,726.218 1467.18,726.325 1467.18,726.325L1462.48,723.118C1448.9,745.034 1427.84,762.887 1401.22,774.433C1350.55,796.456 1303.61,790.79 1269.83,761.177L1266.73,765.881C1266.73,765.881 1266.73,765.774 1266.62,765.774L1209.11,851.834C1223.43,861.776 1238.72,870.115 1254.76,876.85C1318.26,903.256 1383.26,901.973 1447.3,874.177C1493.59,854.079 1529.94,823.503 1554.74,784.696L1467.29,726.218ZM1745.46,289.718L1745.46,768.019L1819.87,798.167L1777.64,896.735L1695.53,862.524C1677.15,854.506 1664.53,842.319 1655.12,828.528C1646.04,814.523 1639.3,795.173 1639.3,769.302L1639.3,289.718L1745.46,289.718ZM1938.11,646.252C1938.11,605.52 1956.17,568.958 1984.61,544.156L1908.28,459.058C1856.54,504.814 1823.93,571.631 1823.93,646.038C1823.82,720.552 1856.43,787.476 1908.07,833.232L1984.29,748.134C1955.96,723.225 1938.11,686.877 1938.11,646.252ZM2073.66,781.917C2058.7,781.917 2044.16,779.351 2030.69,774.861L1994.23,883.158C2019.14,891.496 2045.76,896.093 2073.56,896.093C2194.36,896.2 2295.18,810.461 2318.59,696.605L2206.55,673.727C2193.83,735.626 2139.2,782.024 2073.66,781.917ZM2073.99,396.411C2046.3,396.411 2019.68,400.901 1994.77,409.133L2030.9,517.536C2044.48,513.046 2058.91,510.587 2073.88,510.587C2139.52,510.694 2194.26,557.305 2206.66,619.311L2318.69,596.647C2295.71,482.578 2194.9,396.518 2073.99,396.411Z" style="fill-rule:nonzero;"/>
            </g>
        </g>
    </g>
</svg>
