<?xml version="1.0" encoding="UTF-8" standalone="no"?>
<!DOCTYPE svg PUBLIC "-//W3C//DTD SVG 1.1//EN" "http://www.w3.org/Graphics/SVG/1.1/DTD/svg11.dtd">
<svg width="100%" height="100%" viewBox="0 0 691 438" version="1.1" xmlns="http://www.w3.org/2000/svg" xmlns:xlink="http://www.w3.org/1999/xlink" xml:space="preserve" xmlns:serif="http://www.serif.com/" style="fill-rule:evenodd;clip-rule:evenodd;stroke-linejoin:round;stroke-miterlimit:2;">
    <g transform="matrix(1,0,0,1,-249,-564.5)">
        <g>
            <g transform="matrix(1,0,0,1,221,265.5)">
                <rect x="28" y="299" width="691" height="438" style="fill:white;"/>
            </g>
            <g id="visa.svg" transform="matrix(0.2584,0,0,0.2584,594.5,791.612)">
                <clipPath id="_clip1">
                    <rect x="-1250" y="-542.237" width="2500" height="1021.69"/>
                </clipPath>
                <g clip-path="url(#_clip1)">
                    <g transform="matrix(1,0,0,1,-1250,-1250)">
                        <g>
                            <path d="M1110.11,1579.94L938.426,1579.94L1045.72,920.523L1217.42,920.523L1110.11,1579.94ZM793.999,920.523L630.327,1374.07L610.959,1276.4L610.977,1276.44L553.21,979.895C553.21,979.895 546.225,920.523 471.771,920.523L201.19,920.523L198.015,931.688C198.015,931.688 280.759,948.904 377.596,1007.06L526.751,1579.95L705.628,1579.95L978.766,920.523L793.999,920.523ZM2144.35,1579.94L2301.99,1579.94L2164.54,920.505L2026.54,920.505C1962.81,920.505 1947.28,969.647 1947.28,969.647L1691.24,1579.94L1870.2,1579.94L1905.99,1481.99L2124.24,1481.99L2144.35,1579.94ZM1955.43,1346.68L2045.64,1099.91L2096.39,1346.68L1955.43,1346.68ZM1704.66,1079.1L1729.16,937.491C1729.16,937.491 1653.56,908.74 1574.75,908.74C1489.55,908.74 1287.24,945.976 1287.24,1127.04C1287.24,1297.4 1524.69,1299.51 1524.69,1389C1524.69,1478.48 1311.7,1462.44 1241.41,1406.02L1215.89,1554.08C1215.89,1554.08 1292.55,1591.31 1409.67,1591.31C1526.83,1591.31 1703.57,1530.65 1703.57,1365.55C1703.57,1194.1 1463.98,1178.14 1463.98,1103.6C1464,1029.04 1631.19,1038.62 1704.66,1079.1Z" style="fill:rgb(37,102,175);fill-rule:nonzero;"/>
                        </g>
                        <path d="M610.977,1276.42L553.21,979.878C553.21,979.878 546.225,920.505 471.771,920.505L201.19,920.505L198.015,931.67C198.015,931.67 328.066,958.623 452.809,1059.61C572.083,1156.13 610.977,1276.42 610.977,1276.42Z" style="fill:rgb(230,165,64);fill-rule:nonzero;"/>
                        <rect x="0" y="0" width="2500" height="2500" style="fill:none;fill-rule:nonzero;"/>
                    </g>
                </g>
            </g>
        </g>
    </g>
</svg>
